<?xml version="1.0" standalone="no"?>
<!DOCTYPE svg PUBLIC "-//W3C//DTD SVG 20010904//EN"
 "http://www.w3.org/TR/2001/REC-SVG-20010904/DTD/svg10.dtd">
<svg version="1.0" xmlns="http://www.w3.org/2000/svg"
 width="278.000000pt" height="49.000000pt" viewBox="0 0 278.000000 49.000000"
 preserveAspectRatio="xMidYMid meet">

<g transform="translate(0.000000,49.000000) scale(0.100000,-0.100000)"
fill="#000000" stroke="none">
<path d="M0 245 l0 -245 1390 0 1390 0 0 245 0 245 -1390 0 -1390 0 0 -245z
m2070 161 c0 -2 -7 -7 -16 -10 -8 -3 -12 -2 -9 4 6 10 25 14 25 6z m-1861
-133 c-1 -30 -4 -37 -6 -20 -2 15 -11 27 -19 27 -16 0 -19 -36 -4 -43 6 -3 5
-4 -2 -3 -7 1 -14 13 -16 25 -3 16 2 24 17 28 12 3 21 12 21 19 0 8 2 14 5 14
3 0 4 -21 4 -47z m194 -23 l22 -25 -22 18 c-21 18 -21 18 -26 0 -3 -10 -5 5
-4 32 0 28 2 39 4 25 3 -14 14 -36 26 -50z m-345 53 c-22 -6 -22 -12 -2 -34
18 -20 11 -40 -14 -38 -15 1 -15 2 1 6 21 5 22 22 2 29 -25 10 -19 44 8 43 16
-1 18 -2 5 -6z m217 -43 c0 -16 -6 -26 -18 -28 -19 -4 -32 20 -23 44 9 25 41
13 41 -16z m58 20 c-13 -5 -23 -14 -23 -20 0 -6 10 -15 23 -20 22 -9 22 -9 1
-9 -24 -1 -37 20 -28 44 4 8 16 15 28 14 21 0 21 0 -1 -9z m157 -4 c0 -8 -10
-16 -22 -19 -23 -4 -23 -4 2 -15 24 -10 24 -11 3 -11 -13 -1 -23 1 -23 3 0 2
-3 11 -6 20 -5 12 0 16 17 17 23 0 23 1 4 9 -19 8 -19 9 3 9 13 1 22 -5 22
-13z m70 5 c0 -5 -8 -8 -17 -7 -10 0 -20 -9 -24 -24 -7 -24 -7 -24 -8 5 -1 26
3 31 24 33 14 1 25 -2 25 -7z m350 -5 c0 -8 -10 -16 -22 -19 -23 -4 -23 -4 2
-15 24 -10 24 -11 3 -11 -13 -1 -23 1 -23 3 0 2 -3 11 -6 20 -5 12 0 16 17 17
23 0 23 1 4 9 -19 8 -19 9 3 9 13 1 22 -5 22 -13z m70 5 c0 -5 -8 -8 -17 -7
-10 0 -20 -9 -24 -24 -7 -24 -7 -24 -8 5 -1 26 3 31 24 33 14 1 25 -2 25 -7z
m47 2 c-9 -2 -14 -9 -11 -15 4 -7 2 -8 -5 -4 -15 10 -4 26 17 25 15 -1 15 -2
-1 -6z m72 -25 c-2 -28 -2 -29 -6 -8 -3 14 -10 28 -17 32 -7 5 -5 8 7 8 13 0
17 -8 16 -32z m86 2 c0 -29 -32 -41 -41 -16 -9 24 4 48 23 44 12 -2 18 -12 18
-28z m71 -3 c1 -26 1 -26 -3 -2 -5 31 -25 28 -34 -6 -6 -22 -7 -21 -8 7 -1 26
3 31 22 30 17 -1 22 -7 23 -29z m-416 15 c0 -5 -6 -16 -13 -26 -13 -17 -14
-18 -20 -2 -4 10 -3 15 3 11 6 -3 13 1 16 9 7 17 14 21 14 8z m-147 -9 c-7 -2
-21 -2 -30 0 -10 3 -4 5 12 5 17 0 24 -2 18 -5z m70 0 c-7 -2 -21 -2 -30 0
-10 3 -4 5 12 5 17 0 24 -2 18 -5z m279 -25 c-5 -5 -18 -8 -28 -5 -15 4 -14 5
4 6 15 1 21 5 16 13 -5 7 -3 8 5 3 8 -5 9 -11 3 -17z m-779 -128 l22 -25 -22
18 c-21 18 -21 18 -26 0 -3 -10 -5 5 -4 32 0 28 2 39 4 25 3 -14 14 -36 26
-50z m1398 37 c18 5 20 2 17 -22 -2 -16 -9 -30 -16 -31 -7 -1 -8 0 -2 3 14 7
13 46 -2 41 -7 -3 -15 -15 -19 -29 -5 -16 -7 -8 -7 26 1 28 3 40 5 29 3 -16 9
-20 24 -17z m206 27 c-3 -3 -12 -4 -19 -1 -8 3 -5 6 6 6 11 1 17 -2 13 -5z
m92 -41 c-1 -30 -4 -37 -6 -20 -2 15 -11 27 -19 27 -16 0 -19 -36 -4 -43 6 -3
5 -4 -2 -3 -7 1 -14 13 -16 25 -3 16 2 24 17 28 12 3 21 12 21 19 0 8 2 14 5
14 3 0 4 -21 4 -47z m192 14 c18 5 20 2 17 -22 -2 -16 -9 -30 -16 -31 -7 -1
-8 0 -2 3 14 7 13 46 -2 41 -7 -3 -15 -15 -19 -29 -5 -16 -7 -8 -7 26 1 28 3
40 5 29 3 -16 9 -20 24 -17z m228 -14 c-1 -30 -4 -37 -6 -20 -2 15 -11 27 -19
27 -16 0 -19 -36 -4 -43 6 -3 5 -4 -2 -3 -7 1 -14 13 -16 25 -3 16 2 24 17 28
12 3 21 12 21 19 0 8 2 14 5 14 3 0 4 -21 4 -47z m59 40 c-10 -2 -18 -9 -18
-14 0 -5 8 -10 18 -10 16 -1 16 -2 0 -6 -11 -3 -19 -15 -19 -31 l-2 -27 -4 28
c-2 15 -8 27 -14 27 -5 0 -1 9 8 20 10 11 24 19 33 19 11 -1 11 -2 -2 -6z
m-2364 -25 c14 -23 -3 -52 -33 -56 -19 -3 -21 1 -21 38 0 37 2 41 21 38 12 -2
27 -11 33 -20z m1042 11 c3 -6 -4 -21 -17 -33 -22 -20 -22 -20 -6 0 21 26 21
31 0 37 -16 4 -16 5 -1 6 9 0 20 -4 24 -10z m65 -58 c-3 -10 -6 -11 -9 -3 -2
7 -13 12 -23 12 -11 0 -18 4 -14 10 3 5 12 7 20 3 10 -3 15 1 15 12 0 10 -4
13 -12 9 -8 -5 -7 0 2 11 14 17 15 17 21 -11 3 -16 3 -36 0 -43z m144 29 c0
-28 -4 -35 -20 -35 -13 0 -21 8 -23 23 -5 34 5 54 25 50 13 -2 18 -13 18 -38z
m141 29 c3 -6 -4 -21 -17 -33 -22 -20 -22 -20 -6 0 21 26 21 31 0 37 -16 4
-16 5 -1 6 9 0 20 -4 24 -10z m774 2 c0 -6 -5 -13 -12 -17 -6 -4 -8 -3 -4 4 3
6 -3 12 -16 15 -20 4 -19 4 5 6 15 0 27 -3 27 -8z m61 -60 c-3 -10 -6 -11 -9
-3 -2 7 -13 12 -23 12 -11 0 -18 4 -14 10 3 5 12 7 20 3 10 -3 15 1 15 12 0
10 -4 13 -12 9 -8 -5 -7 0 2 11 14 17 15 17 21 -11 3 -16 3 -36 0 -43z m-2166
19 c0 -29 -32 -41 -41 -16 -9 24 4 48 23 44 12 -2 18 -12 18 -28z m58 20 c-13
-5 -23 -14 -23 -20 0 -6 10 -15 23 -20 22 -9 22 -9 1 -9 -12 -1 -24 6 -28 14
-9 24 4 45 28 44 21 0 21 0 -1 -9z m157 -4 c0 -8 -10 -16 -22 -19 -23 -4 -23
-4 2 -15 24 -10 24 -11 3 -11 -13 -1 -23 1 -23 3 0 2 -3 11 -6 20 -5 12 0 16
17 17 23 0 23 1 4 9 -19 8 -19 9 3 9 13 1 22 -5 22 -13z m70 5 c0 -5 -8 -8
-17 -7 -10 0 -20 -9 -24 -24 -7 -24 -7 -24 -8 5 -1 26 3 31 24 33 14 1 25 -2
25 -7z m210 -5 c0 -8 -10 -16 -22 -19 -23 -4 -23 -4 2 -15 24 -10 24 -11 3
-11 -13 -1 -23 1 -23 3 0 2 -3 11 -6 20 -5 12 0 16 17 17 23 0 23 1 4 9 -19 8
-19 9 3 9 13 1 22 -5 22 -13z m70 5 c0 -5 -8 -8 -17 -7 -10 0 -20 -9 -24 -24
-7 -24 -7 -24 -8 5 -1 26 3 31 24 33 14 1 25 -2 25 -7z m47 2 c-9 -2 -14 -9
-11 -15 4 -7 2 -8 -5 -4 -15 10 -4 26 17 25 15 -1 15 -2 -1 -6z m72 -25 c-2
-28 -2 -29 -6 -8 -3 14 -10 28 -17 32 -7 5 -5 8 7 8 13 0 17 -8 16 -32z m86 2
c0 -29 -32 -41 -41 -16 -9 24 4 48 23 44 12 -2 18 -12 18 -28z m71 -3 c1 -26
1 -26 -3 -2 -5 31 -25 28 -34 -6 -6 -22 -7 -21 -8 7 -1 26 3 31 22 30 17 -1
22 -7 23 -29z m747 -14 c6 2 14 14 18 28 6 22 7 21 8 -7 1 -26 -3 -31 -21 -30
-17 1 -23 7 -24 26 -1 23 -1 23 3 2 3 -13 10 -21 16 -19z m76 15 c-2 -28 -2
-29 -6 -8 -3 14 -10 28 -17 32 -7 5 -5 8 7 8 13 0 17 -8 16 -32z m284 22 c-13
-5 -23 -14 -23 -20 0 -6 10 -15 23 -20 22 -9 22 -9 1 -9 -24 -1 -37 20 -28 44
4 8 16 15 28 14 21 0 21 0 -1 -9z m420 0 c-13 -5 -23 -14 -23 -20 0 -6 10 -15
23 -20 22 -9 22 -9 1 -9 -24 -1 -37 20 -28 44 4 8 16 15 28 14 21 0 21 0 -1
-9z m-1943 -8 c0 -5 -6 -16 -13 -26 -13 -17 -14 -18 -20 -2 -4 10 -3 15 3 11
6 -3 13 1 16 9 7 17 14 21 14 8z m202 -34 c-5 -5 -18 -8 -28 -5 -15 4 -14 5 4
6 15 1 21 5 16 13 -5 7 -3 8 5 3 8 -5 9 -11 3 -17z m478 2 c0 -5 -4 -10 -10
-10 -5 0 -10 5 -10 10 0 6 5 10 10 10 6 0 10 -4 10 -10z m140 0 c0 -5 -4 -10
-10 -10 -5 0 -10 5 -10 10 0 6 5 10 10 10 6 0 10 -4 10 -10z m-267 -7 c-7 -2
-21 -2 -30 0 -10 3 -4 5 12 5 17 0 24 -2 18 -5z m350 0 c-7 -2 -21 -2 -30 0
-10 3 -4 5 12 5 17 0 24 -2 18 -5z"/>
<path d="M240 260 c0 -11 7 -20 15 -20 8 0 15 9 15 20 0 11 -7 20 -15 20 -8 0
-15 -9 -15 -20z"/>
<path d="M1150 260 c0 -11 7 -20 15 -20 8 0 15 9 15 20 0 11 -7 20 -15 20 -8
0 -15 -9 -15 -20z"/>
<path d="M30 130 c0 -25 4 -31 18 -28 11 2 17 12 17 28 0 16 -6 26 -17 28 -14
3 -18 -3 -18 -28z"/>
<path d="M1290 130 c0 -20 5 -30 15 -30 10 0 15 10 15 30 0 20 -5 30 -15 30
-10 0 -15 -10 -15 -30z"/>
<path d="M100 120 c0 -11 7 -20 15 -20 8 0 15 9 15 20 0 11 -7 20 -15 20 -8 0
-15 -9 -15 -20z"/>
<path d="M870 120 c0 -11 7 -20 15 -20 8 0 15 9 15 20 0 11 -7 20 -15 20 -8 0
-15 -9 -15 -20z"/>
</g>
</svg>
